<?xml version="1.0" standalone="no"?>
<!DOCTYPE svg PUBLIC "-//W3C//DTD SVG 20010904//EN"
 "http://www.w3.org/TR/2001/REC-SVG-20010904/DTD/svg10.dtd">
<svg version="1.0" xmlns="http://www.w3.org/2000/svg"
 width="512.000000pt" height="512.000000pt" viewBox="0 0 512.000000 512.000000"
 preserveAspectRatio="xMidYMid meet">

<g transform="translate(0.000000,512.000000) scale(0.100000,-0.100000)"
fill="#000000" stroke="none">
<path d="M2635 3960 c-11 -4 -31 -20 -45 -35 -22 -23 -25 -36 -25 -100 l0 -73
-54 -69 c-120 -149 -152 -181 -192 -188 -54 -9 -128 30 -143 75 -15 45 -57 75
-107 75 -35 0 -46 -6 -76 -39 -30 -32 -34 -43 -30 -71 5 -31 -3 -42 -125 -174
-111 -121 -134 -141 -160 -141 -43 0 -88 -48 -88 -95 0 -65 69 -110 131 -85
34 15 51 40 58 91 5 29 32 65 131 174 109 119 128 136 150 132 14 -3 39 0 55
7 26 12 35 10 75 -9 34 -17 48 -32 58 -59 10 -26 25 -42 53 -56 35 -18 42 -19
71 -7 48 20 63 43 61 94 -1 38 4 49 46 96 26 28 73 85 105 125 51 65 60 72 92
72 62 0 103 24 125 76 32 72 10 147 -52 180 -31 15 -82 18 -114 4z"/>
<path d="M3085 3756 c-22 -12 -119 -65 -215 -117 -96 -51 -185 -104 -197 -116
-23 -22 -23 -26 -23 -277 l0 -255 -27 -21 -28 -22 -5 -321 c-5 -300 -6 -322
-23 -325 -47 -9 -47 -7 -47 452 0 323 -3 435 -12 444 -8 8 -51 12 -128 12
-100 0 -119 -3 -133 -18 -15 -16 -17 -66 -19 -453 l-3 -434 -40 0 -40 0 -5
333 c-5 316 -6 334 -24 348 -28 20 -214 20 -241 0 -19 -14 -20 -28 -16 -338 3
-351 3 -354 -51 -346 -23 3 -23 3 -28 206 -4 165 -8 205 -20 212 -20 13 -216
13 -241 0 -18 -10 -19 -24 -19 -240 0 -225 0 -229 22 -244 20 -14 101 -16 673
-16 545 -1 654 -3 675 -15 14 -8 36 -14 50 -15 35 0 312 161 327 191 8 16 13
72 13 161 l0 136 161 99 c88 54 178 110 200 126 l39 27 -2 293 -3 292 -75 41
c-352 190 -417 224 -435 224 -11 0 -38 -11 -60 -24z m236 -161 c85 -46 160
-88 168 -93 8 -4 12 -15 9 -23 -6 -16 -335 -191 -352 -187 -6 2 -84 45 -174
97 -108 62 -162 98 -160 108 4 18 304 182 334 183 12 0 91 -38 175 -85z m-447
-253 c55 -32 134 -78 174 -102 l72 -43 0 -118 c0 -65 -4 -120 -8 -123 -5 -3
-61 26 -124 65 -64 38 -125 69 -137 69 -11 0 -36 -9 -55 -21 -19 -11 -40 -18
-46 -14 -11 7 -15 327 -3 338 12 13 25 7 127 -51z m139 -441 c42 -23 77 -44
77 -46 0 -10 -147 -85 -165 -85 -25 1 -199 121 -203 141 -1 8 25 29 65 51 l67
36 41 -27 c22 -15 75 -47 118 -70z m-321 -157 c-4 -22 -2 -26 12 -21 15 6 15
4 -1 -19 -14 -22 -14 -27 -2 -35 10 -6 10 -9 2 -9 -7 0 -13 -10 -13 -22 1 -20
2 -21 13 -8 7 8 20 21 30 29 15 12 17 11 17 -3 0 -10 -4 -15 -9 -11 -5 3 -18
-6 -29 -20 -15 -19 -20 -41 -20 -96 0 -39 -3 -73 -6 -76 -3 -4 -6 69 -6 161 0
92 4 165 9 162 4 -3 6 -18 3 -32z m156 -40 c30 -17 42 -46 24 -58 -4 -2 -7
-30 -6 -61 l2 -56 -28 4 c-23 4 -27 2 -23 -14 4 -15 8 -17 19 -8 12 10 13 8 8
-6 -5 -12 -4 -16 4 -11 6 3 15 -1 20 -11 10 -20 16 -173 7 -173 -16 0 -54 34
-48 43 3 6 1 7 -6 3 -15 -10 -83 33 -74 47 4 6 0 8 -9 4 -9 -3 -24 1 -35 9
-17 13 -17 14 5 32 19 14 20 20 10 32 -11 12 -11 12 5 0 14 -10 20 -11 30 -1
9 10 9 12 -3 9 -10 -2 -14 3 -12 16 2 12 -1 16 -9 10 -7 -4 -10 -3 -5 4 3 6
-1 17 -9 25 -21 22 -19 30 5 17 17 -9 20 -8 20 9 0 11 5 23 10 26 6 3 10 -3
10 -14 0 -14 5 -19 15 -15 8 4 12 11 8 18 -4 6 1 5 10 -3 15 -12 17 -11 17 2
0 9 4 18 9 21 4 3 7 -5 6 -18 -3 -27 21 -31 28 -4 3 10 1 18 -3 18 -5 0 -7 11
-6 24 3 24 -7 28 -31 13 -7 -5 -13 -6 -13 -3 0 2 -3 12 -7 22 -5 13 -3 15 7 9
9 -5 11 -4 6 3 -5 8 -13 9 -25 2 -22 -11 -41 4 -34 30 3 12 11 16 20 13 11 -4
14 -2 11 8 -3 8 -10 15 -16 15 -22 3 -23 4 -17 14 4 7 18 4 38 -8 18 -11 47
-28 65 -38z m-103 -84 c3 -5 1 -10 -4 -10 -6 0 -11 5 -11 10 0 6 2 10 4 10 3
0 8 -4 11 -10z m-11 -35 c-5 -12 -10 -13 -20 -4 -19 15 -18 19 6 19 13 0 18
-5 14 -15z"/>
<path d="M2768 2693 c7 -3 16 -2 19 1 4 3 -2 6 -13 5 -11 0 -14 -3 -6 -6z"/>
<path d="M2781 2520 c-8 -5 -12 -18 -9 -34 5 -25 2 -28 -31 -30 -8 -1 -16 -7
-19 -14 -2 -8 2 -10 13 -6 9 4 21 1 25 -6 6 -9 12 -10 26 -1 18 10 18 10 1 11
-12 0 -16 4 -10 13 4 6 6 22 4 34 -2 17 1 21 13 17 9 -3 16 -1 16 4 0 16 -14
22 -29 12z"/>
<path d="M2797 2469 c-3 -11 -1 -22 4 -25 14 -9 10 -24 -7 -24 -8 0 -12 -5 -9
-10 9 -14 25 -3 36 27 7 20 12 23 23 14 9 -8 16 -8 20 -2 4 5 2 12 -4 16 -6 4
-8 10 -6 13 2 4 -8 8 -24 8 -20 1 -30 -4 -33 -17z"/>
<path d="M2828 2424 c-4 -28 -2 -31 13 -21 10 6 15 14 10 17 -4 3 -10 12 -13
20 -3 8 -7 1 -10 -16z"/>
<path d="M2808 2373 c7 -3 16 -2 19 1 4 3 -2 6 -13 5 -11 0 -14 -3 -6 -6z"/>
<path d="M1015 1898 c-3 -8 -4 -79 -3 -158 l3 -145 30 0 30 0 5 95 5 95 37
-57 c21 -32 43 -58 50 -58 7 0 26 22 41 50 15 27 32 52 37 55 6 4 10 -29 10
-84 0 -79 2 -90 19 -96 10 -3 26 -3 35 1 15 6 16 24 14 158 l-3 151 -35 0
c-32 0 -37 -5 -72 -65 -21 -36 -41 -66 -46 -67 -4 -1 -25 28 -47 65 -35 58
-44 67 -73 70 -20 2 -34 -2 -37 -10z"/>
<path d="M1475 1898 c-2 -7 -24 -67 -49 -133 -58 -153 -60 -169 -24 -173 23
-3 30 2 42 32 15 35 16 36 71 36 55 0 56 -1 71 -35 8 -19 21 -35 28 -35 23 0
46 11 46 22 0 15 -101 271 -113 286 -5 6 -23 12 -39 12 -16 0 -31 -6 -33 -12z
m69 -165 c7 -20 4 -23 -23 -23 -36 0 -44 11 -32 42 5 13 13 32 16 43 7 18 9
17 20 -10 7 -16 16 -40 19 -52z"/>
<path d="M1705 1900 c-10 -16 6 -300 17 -306 5 -3 20 -3 34 0 21 6 24 12 24
50 0 44 24 81 38 60 65 -97 102 -127 132 -109 15 10 10 21 -50 103 l-52 71 58
68 57 68 -34 3 c-31 4 -39 -2 -90 -58 -53 -58 -57 -60 -62 -38 -4 13 -7 40 -7
61 0 34 -2 37 -29 37 -17 0 -33 -5 -36 -10z"/>
<path d="M2012 1753 l3 -158 98 -3 97 -3 0 36 0 35 -65 0 -65 0 0 30 c0 30 1
30 55 30 l55 0 0 35 0 35 -54 0 c-41 0 -55 4 -60 16 -11 30 13 44 76 44 59 0
59 0 56 28 l-3 27 -98 3 -98 3 3 -158z"/>
<path d="M2270 1756 c0 -98 4 -157 11 -161 5 -4 21 -4 35 -1 21 6 24 12 24 55
0 26 3 51 6 54 12 12 42 -13 70 -58 31 -49 50 -60 82 -48 20 8 20 10 -14 65
l-35 56 26 26 c27 27 34 81 14 118 -16 30 -71 48 -149 48 l-70 0 0 -154z m153
74 c18 -16 2 -53 -26 -63 -43 -14 -57 -3 -57 44 l0 41 38 -7 c20 -3 41 -10 45
-15z"/>
<path d="M2520 1901 c0 -4 24 -75 54 -157 48 -135 55 -149 78 -152 24 -3 28 3
53 83 15 47 31 88 35 90 5 3 23 -35 41 -85 27 -77 35 -90 54 -90 20 0 28 12
53 83 33 92 72 215 72 228 0 5 -15 9 -33 9 -33 0 -33 -1 -62 -90 -16 -50 -32
-87 -36 -83 -4 5 -18 44 -31 88 -20 66 -28 81 -47 83 -28 4 -47 -11 -56 -46
-20 -83 -38 -133 -45 -125 -4 4 -18 40 -30 78 -13 39 -27 76 -33 83 -11 14
-67 17 -67 3z"/>
<path d="M3050 1893 c-50 -26 -83 -93 -76 -156 7 -61 30 -100 76 -126 77 -43
165 -19 218 59 20 29 23 44 20 88 -8 88 -63 143 -150 149 -38 3 -63 -1 -88
-14z m133 -63 c55 -43 42 -143 -22 -170 -90 -37 -163 90 -92 161 35 35 77 38
114 9z"/>
<path d="M3337 1903 c-4 -3 -7 -73 -7 -154 l0 -149 26 -6 c34 -9 42 2 46 61 4
64 21 65 65 5 51 -69 52 -70 78 -70 38 0 38 16 1 74 l-34 54 23 22 c32 30 38
63 21 105 -11 24 -26 40 -50 50 -36 15 -157 21 -169 8z m144 -71 c27 -23 21
-48 -16 -62 -52 -20 -65 -14 -65 28 0 21 3 42 7 45 12 13 51 7 74 -11z"/>
<path d="M3625 1899 c-11 -17 -1 -293 10 -301 6 -4 50 -8 98 -8 l88 0 -3 33
c-3 32 -4 32 -63 37 l-60 5 -3 123 -3 122 -29 0 c-16 0 -32 -5 -35 -11z"/>
<path d="M3877 1903 c-4 -3 -7 -73 -7 -154 l0 -149 26 -6 c40 -10 131 3 167
23 46 26 80 98 71 151 -15 93 -79 141 -190 142 -33 0 -64 -3 -67 -7z m163 -83
c60 -60 22 -160 -62 -160 l-38 0 0 90 0 90 40 0 c26 0 47 -7 60 -20z"/>
<path d="M3571 1394 c-55 -46 -33 -101 49 -125 33 -10 40 -17 38 -33 -4 -25
-46 -33 -79 -16 -17 10 -24 9 -36 -3 -14 -13 -13 -17 10 -31 58 -39 130 -26
155 27 21 43 -1 78 -63 99 -28 9 -51 23 -53 32 -4 20 40 31 68 16 16 -9 25 -9
36 1 22 18 17 29 -21 45 -49 20 -69 18 -104 -12z"/>
<path d="M1483 1373 c-19 -46 -73 -193 -73 -199 0 -2 11 -4 23 -4 16 0 28 9
35 25 10 21 18 25 56 25 38 0 45 -3 50 -25 5 -18 13 -25 31 -25 14 0 25 3 25
8 0 4 -19 58 -42 119 -38 98 -46 113 -66 113 -17 0 -27 -9 -39 -37z m54 -72
c12 -33 8 -41 -19 -41 -18 0 -24 23 -12 54 9 24 18 20 31 -13z"/>
<path d="M1720 1290 l0 -120 25 0 c23 0 24 3 27 76 l3 75 54 -75 c46 -64 58
-76 82 -76 l29 0 0 104 c0 117 -4 136 -31 136 -16 0 -19 -10 -21 -77 l-3 -77
-58 77 c-45 59 -64 77 -83 77 l-24 0 0 -120z"/>
<path d="M2072 1303 c-23 -59 -42 -114 -42 -121 0 -6 11 -12 25 -12 18 0 26 7
31 25 5 22 12 25 50 25 38 0 46 -4 56 -25 7 -16 19 -25 35 -25 12 0 23 4 23 8
0 4 -20 57 -44 117 -38 95 -47 110 -68 113 -23 3 -28 -6 -66 -105z m88 -25 c0
-13 -8 -18 -25 -18 -29 0 -29 2 -13 47 12 33 12 33 25 11 7 -13 12 -31 13 -40z"/>
<path d="M2340 1290 l0 -120 75 0 c68 0 75 2 75 20 0 17 -7 20 -50 20 l-50 0
0 100 0 100 -25 0 -25 0 0 -120z"/>
<path d="M2546 1378 c9 -18 28 -50 41 -70 16 -27 23 -52 23 -88 0 -47 2 -50
25 -50 23 0 25 4 25 46 0 37 9 63 40 116 22 39 40 72 40 74 0 2 -11 4 -25 4
-19 0 -29 -10 -45 -39 -11 -22 -24 -42 -29 -45 -5 -4 -20 13 -33 36 -17 32
-30 44 -51 46 l-28 3 17 -33z"/>
<path d="M2820 1386 c0 -20 6 -25 32 -28 l32 -3 -2 -92 c-2 -93 -1 -93 23 -93
25 0 25 1 25 95 l0 95 35 0 c31 0 35 3 35 25 0 25 -1 25 -90 25 -89 0 -90 0
-90 -24z"/>
<path d="M3090 1290 l0 -120 25 0 25 0 0 120 0 120 -25 0 -25 0 0 -120z"/>
<path d="M3278 1381 c-43 -37 -55 -85 -35 -134 30 -70 103 -101 168 -72 42 19
46 27 26 44 -10 8 -22 7 -46 -2 -26 -10 -37 -9 -59 4 -58 32 -62 99 -8 134 22
14 30 15 61 4 30 -11 37 -11 51 2 13 14 13 17 -1 29 -9 7 -40 15 -69 18 -48 4
-56 1 -88 -27z"/>
</g>
</svg>
